<svg width="1792" height="1792" xmlns="http://www.w3.org/2000/svg">

 <g>
  <title>background</title>
  <rect fill="none" id="canvas_background" height="402" width="582" y="-1" x="-1"/>
 </g>
 <g>
  <title>Layer 1</title>
  <path fill="#d60f0f" id="svg_1" d="m902.250192,1664q-26,0 -44,-18l-624,-602q-10,-8 -27.5,-26t-55.5,-65.5t-68,-97.5t-53.5,-121t-23.5,-138q0,-220 127,-344t351,-124q62,0 126.5,21.5t120,58t95.5,68.5t76,68q36,-36 76,-68t95.5,-68.5t120,-58t126.5,-21.5q224,0 351,124t127,344q0,221 -229,450l-623,600q-18,18 -44,18z"/>
 </g>
</svg>